<mxfile host="app.diagrams.net" modified="2021-01-28T04:57:42.086Z" agent="5.0 (Windows NT 10.0; Win64; x64) AppleWebKit/537.36 (KHTML, like Gecko) Chrome/87.0.4280.141 Safari/537.36" etag="eLtEh6ysChcVXi-Vr6au" version="14.1.1" type="github">
  <diagram id="C5RBs43oDa-KdzZeNtuy" name="Page-1">
    <mxGraphModel dx="1847" dy="2036" grid="1" gridSize="10" guides="1" tooltips="1" connect="1" arrows="1" fold="1" page="1" pageScale="1" pageWidth="827" pageHeight="1169" math="0" shadow="0">
      <root>
        <mxCell id="WIyWlLk6GJQsqaUBKTNV-0" />
        <mxCell id="WIyWlLk6GJQsqaUBKTNV-1" parent="WIyWlLk6GJQsqaUBKTNV-0" />
        <mxCell id="FQEPiAxGQchh3mnsltmR-43" value="Yes" style="edgeStyle=orthogonalEdgeStyle;rounded=0;orthogonalLoop=1;jettySize=auto;html=1;exitX=0.5;exitY=1;exitDx=0;exitDy=0;entryX=0.5;entryY=0;entryDx=0;entryDy=0;" edge="1" parent="WIyWlLk6GJQsqaUBKTNV-1" source="FQEPiAxGQchh3mnsltmR-3" target="FQEPiAxGQchh3mnsltmR-25">
          <mxGeometry relative="1" as="geometry">
            <Array as="points">
              <mxPoint x="400" y="40" />
              <mxPoint x="400" y="40" />
            </Array>
          </mxGeometry>
        </mxCell>
        <mxCell id="FQEPiAxGQchh3mnsltmR-96" value="No" style="edgeStyle=orthogonalEdgeStyle;rounded=0;orthogonalLoop=1;jettySize=auto;html=1;exitX=1;exitY=0.5;exitDx=0;exitDy=0;entryX=0.5;entryY=1;entryDx=0;entryDy=0;" edge="1" parent="WIyWlLk6GJQsqaUBKTNV-1" source="FQEPiAxGQchh3mnsltmR-3" target="FQEPiAxGQchh3mnsltmR-26">
          <mxGeometry x="-0.5002" relative="1" as="geometry">
            <Array as="points">
              <mxPoint x="540" y="-15" />
            </Array>
            <mxPoint as="offset" />
          </mxGeometry>
        </mxCell>
        <mxCell id="FQEPiAxGQchh3mnsltmR-3" value="ボールを検知&lt;br&gt;したか" style="rhombus;whiteSpace=wrap;html=1;" vertex="1" parent="WIyWlLk6GJQsqaUBKTNV-1">
          <mxGeometry x="344.98" y="-50" width="110.03" height="70" as="geometry" />
        </mxCell>
        <mxCell id="FQEPiAxGQchh3mnsltmR-87" value="Yes" style="edgeStyle=orthogonalEdgeStyle;rounded=0;orthogonalLoop=1;jettySize=auto;html=1;exitX=0.5;exitY=1;exitDx=0;exitDy=0;entryX=0.5;entryY=0;entryDx=0;entryDy=0;" edge="1" parent="WIyWlLk6GJQsqaUBKTNV-1" source="FQEPiAxGQchh3mnsltmR-9" target="FQEPiAxGQchh3mnsltmR-12">
          <mxGeometry relative="1" as="geometry" />
        </mxCell>
        <mxCell id="FQEPiAxGQchh3mnsltmR-90" value="No" style="edgeStyle=orthogonalEdgeStyle;rounded=0;orthogonalLoop=1;jettySize=auto;html=1;exitX=0;exitY=0.5;exitDx=0;exitDy=0;entryX=0.5;entryY=1;entryDx=0;entryDy=0;" edge="1" parent="WIyWlLk6GJQsqaUBKTNV-1" source="FQEPiAxGQchh3mnsltmR-9" target="FQEPiAxGQchh3mnsltmR-20">
          <mxGeometry x="-0.8335" relative="1" as="geometry">
            <mxPoint as="offset" />
          </mxGeometry>
        </mxCell>
        <mxCell id="FQEPiAxGQchh3mnsltmR-9" value="障害物を検知&lt;br&gt;していないか" style="rhombus;whiteSpace=wrap;html=1;" vertex="1" parent="WIyWlLk6GJQsqaUBKTNV-1">
          <mxGeometry x="344.98" y="480" width="110.03" height="70" as="geometry" />
        </mxCell>
        <mxCell id="FQEPiAxGQchh3mnsltmR-88" value="Yes" style="edgeStyle=orthogonalEdgeStyle;rounded=0;orthogonalLoop=1;jettySize=auto;html=1;exitX=0.5;exitY=1;exitDx=0;exitDy=0;entryX=0.5;entryY=0;entryDx=0;entryDy=0;" edge="1" parent="WIyWlLk6GJQsqaUBKTNV-1" source="FQEPiAxGQchh3mnsltmR-12" target="FQEPiAxGQchh3mnsltmR-21">
          <mxGeometry relative="1" as="geometry" />
        </mxCell>
        <mxCell id="FQEPiAxGQchh3mnsltmR-89" value="No" style="edgeStyle=orthogonalEdgeStyle;rounded=0;orthogonalLoop=1;jettySize=auto;html=1;exitX=1;exitY=0.5;exitDx=0;exitDy=0;entryX=1;entryY=0.5;entryDx=0;entryDy=0;" edge="1" parent="WIyWlLk6GJQsqaUBKTNV-1" source="FQEPiAxGQchh3mnsltmR-12" target="FQEPiAxGQchh3mnsltmR-23">
          <mxGeometry x="-0.8838" relative="1" as="geometry">
            <Array as="points">
              <mxPoint x="510" y="625" />
              <mxPoint x="510" y="300" />
            </Array>
            <mxPoint as="offset" />
          </mxGeometry>
        </mxCell>
        <mxCell id="FQEPiAxGQchh3mnsltmR-12" value="規定された値&lt;br&gt;直進したか" style="rhombus;whiteSpace=wrap;html=1;" vertex="1" parent="WIyWlLk6GJQsqaUBKTNV-1">
          <mxGeometry x="344.98" y="590" width="110.03" height="70" as="geometry" />
        </mxCell>
        <mxCell id="FQEPiAxGQchh3mnsltmR-41" style="edgeStyle=orthogonalEdgeStyle;rounded=0;orthogonalLoop=1;jettySize=auto;html=1;exitX=0.5;exitY=1;exitDx=0;exitDy=0;entryX=0.5;entryY=0;entryDx=0;entryDy=0;" edge="1" parent="WIyWlLk6GJQsqaUBKTNV-1" source="FQEPiAxGQchh3mnsltmR-19" target="FQEPiAxGQchh3mnsltmR-27">
          <mxGeometry relative="1" as="geometry" />
        </mxCell>
        <mxCell id="FQEPiAxGQchh3mnsltmR-19" value="&#xa;&#xa;&lt;span style=&quot;color: rgb(0, 0, 0); font-family: helvetica; font-size: 12px; font-style: normal; font-weight: 400; letter-spacing: normal; text-align: center; text-indent: 0px; text-transform: none; word-spacing: 0px; background-color: rgb(248, 249, 250); display: inline; float: none;&quot;&gt;表情&quot;smile&quot;を表示&lt;/span&gt;&#xa;&#xa;" style="rounded=0;whiteSpace=wrap;html=1;" vertex="1" parent="WIyWlLk6GJQsqaUBKTNV-1">
          <mxGeometry x="340" y="-250" width="120" height="60" as="geometry" />
        </mxCell>
        <mxCell id="FQEPiAxGQchh3mnsltmR-91" style="edgeStyle=orthogonalEdgeStyle;rounded=0;orthogonalLoop=1;jettySize=auto;html=1;exitX=0.5;exitY=0;exitDx=0;exitDy=0;entryX=0.5;entryY=1;entryDx=0;entryDy=0;" edge="1" parent="WIyWlLk6GJQsqaUBKTNV-1" source="FQEPiAxGQchh3mnsltmR-20" target="FQEPiAxGQchh3mnsltmR-28">
          <mxGeometry relative="1" as="geometry" />
        </mxCell>
        <mxCell id="FQEPiAxGQchh3mnsltmR-20" value="&lt;span style=&quot;color: rgb(0 , 0 , 0) ; font-family: &amp;#34;helvetica&amp;#34; ; font-size: 12px ; font-style: normal ; font-weight: 400 ; letter-spacing: normal ; text-align: center ; text-indent: 0px ; text-transform: none ; word-spacing: 0px ; background-color: rgb(248 , 249 , 250) ; display: inline ; float: none&quot;&gt;表情&quot;warning&quot;を表示&lt;/span&gt;" style="rounded=0;whiteSpace=wrap;html=1;" vertex="1" parent="WIyWlLk6GJQsqaUBKTNV-1">
          <mxGeometry x="120" y="320" width="120" height="60" as="geometry" />
        </mxCell>
        <mxCell id="FQEPiAxGQchh3mnsltmR-50" style="edgeStyle=orthogonalEdgeStyle;rounded=0;orthogonalLoop=1;jettySize=auto;html=1;exitX=0.5;exitY=1;exitDx=0;exitDy=0;entryX=0.5;entryY=0;entryDx=0;entryDy=0;" edge="1" parent="WIyWlLk6GJQsqaUBKTNV-1" source="FQEPiAxGQchh3mnsltmR-21" target="FQEPiAxGQchh3mnsltmR-29">
          <mxGeometry relative="1" as="geometry" />
        </mxCell>
        <mxCell id="FQEPiAxGQchh3mnsltmR-21" value="停止" style="rounded=0;whiteSpace=wrap;html=1;" vertex="1" parent="WIyWlLk6GJQsqaUBKTNV-1">
          <mxGeometry x="340" y="700" width="120" height="60" as="geometry" />
        </mxCell>
        <mxCell id="FQEPiAxGQchh3mnsltmR-86" style="edgeStyle=orthogonalEdgeStyle;rounded=0;orthogonalLoop=1;jettySize=auto;html=1;exitX=0.5;exitY=1;exitDx=0;exitDy=0;entryX=0.5;entryY=0;entryDx=0;entryDy=0;" edge="1" parent="WIyWlLk6GJQsqaUBKTNV-1" source="FQEPiAxGQchh3mnsltmR-22" target="FQEPiAxGQchh3mnsltmR-9">
          <mxGeometry relative="1" as="geometry" />
        </mxCell>
        <mxCell id="FQEPiAxGQchh3mnsltmR-22" value="コンベア回転" style="rounded=0;whiteSpace=wrap;html=1;" vertex="1" parent="WIyWlLk6GJQsqaUBKTNV-1">
          <mxGeometry x="340" y="380" width="120" height="60" as="geometry" />
        </mxCell>
        <mxCell id="FQEPiAxGQchh3mnsltmR-46" style="edgeStyle=orthogonalEdgeStyle;rounded=0;orthogonalLoop=1;jettySize=auto;html=1;exitX=0.5;exitY=1;exitDx=0;exitDy=0;entryX=0.5;entryY=0;entryDx=0;entryDy=0;" edge="1" parent="WIyWlLk6GJQsqaUBKTNV-1" source="FQEPiAxGQchh3mnsltmR-23" target="FQEPiAxGQchh3mnsltmR-22">
          <mxGeometry relative="1" as="geometry" />
        </mxCell>
        <mxCell id="FQEPiAxGQchh3mnsltmR-23" value="直進" style="rounded=0;whiteSpace=wrap;html=1;" vertex="1" parent="WIyWlLk6GJQsqaUBKTNV-1">
          <mxGeometry x="340" y="270" width="120" height="60" as="geometry" />
        </mxCell>
        <mxCell id="FQEPiAxGQchh3mnsltmR-45" style="edgeStyle=orthogonalEdgeStyle;rounded=0;orthogonalLoop=1;jettySize=auto;html=1;exitX=0.5;exitY=1;exitDx=0;exitDy=0;entryX=0.5;entryY=0;entryDx=0;entryDy=0;" edge="1" parent="WIyWlLk6GJQsqaUBKTNV-1" source="FQEPiAxGQchh3mnsltmR-24" target="FQEPiAxGQchh3mnsltmR-23">
          <mxGeometry relative="1" as="geometry" />
        </mxCell>
        <mxCell id="FQEPiAxGQchh3mnsltmR-24" value="測定した角度分回転" style="rounded=0;whiteSpace=wrap;html=1;" vertex="1" parent="WIyWlLk6GJQsqaUBKTNV-1">
          <mxGeometry x="340" y="160" width="120" height="60" as="geometry" />
        </mxCell>
        <mxCell id="FQEPiAxGQchh3mnsltmR-44" style="edgeStyle=orthogonalEdgeStyle;rounded=0;orthogonalLoop=1;jettySize=auto;html=1;exitX=0.5;exitY=1;exitDx=0;exitDy=0;entryX=0.5;entryY=0;entryDx=0;entryDy=0;" edge="1" parent="WIyWlLk6GJQsqaUBKTNV-1" source="FQEPiAxGQchh3mnsltmR-25" target="FQEPiAxGQchh3mnsltmR-24">
          <mxGeometry relative="1" as="geometry" />
        </mxCell>
        <mxCell id="FQEPiAxGQchh3mnsltmR-25" value="最も近いボールとの&lt;br&gt;角度を測定" style="rounded=0;whiteSpace=wrap;html=1;" vertex="1" parent="WIyWlLk6GJQsqaUBKTNV-1">
          <mxGeometry x="340" y="60" width="120" height="60" as="geometry" />
        </mxCell>
        <mxCell id="FQEPiAxGQchh3mnsltmR-98" style="edgeStyle=orthogonalEdgeStyle;rounded=0;orthogonalLoop=1;jettySize=auto;html=1;exitX=0.5;exitY=0;exitDx=0;exitDy=0;" edge="1" parent="WIyWlLk6GJQsqaUBKTNV-1" source="FQEPiAxGQchh3mnsltmR-26">
          <mxGeometry relative="1" as="geometry">
            <mxPoint x="540.3333333333335" y="-120" as="targetPoint" />
          </mxGeometry>
        </mxCell>
        <mxCell id="FQEPiAxGQchh3mnsltmR-26" value="30°回転" style="rounded=0;whiteSpace=wrap;html=1;" vertex="1" parent="WIyWlLk6GJQsqaUBKTNV-1">
          <mxGeometry x="480" y="-90" width="120" height="60" as="geometry" />
        </mxCell>
        <mxCell id="FQEPiAxGQchh3mnsltmR-42" style="edgeStyle=orthogonalEdgeStyle;rounded=0;orthogonalLoop=1;jettySize=auto;html=1;exitX=0.5;exitY=1;exitDx=0;exitDy=0;entryX=0.5;entryY=0;entryDx=0;entryDy=0;" edge="1" parent="WIyWlLk6GJQsqaUBKTNV-1" source="FQEPiAxGQchh3mnsltmR-27" target="FQEPiAxGQchh3mnsltmR-3">
          <mxGeometry relative="1" as="geometry" />
        </mxCell>
        <mxCell id="FQEPiAxGQchh3mnsltmR-27" value="選択したボールを&lt;br&gt;画像認識" style="rounded=0;whiteSpace=wrap;html=1;" vertex="1" parent="WIyWlLk6GJQsqaUBKTNV-1">
          <mxGeometry x="340" y="-150" width="120" height="60" as="geometry" />
        </mxCell>
        <mxCell id="FQEPiAxGQchh3mnsltmR-92" style="edgeStyle=orthogonalEdgeStyle;rounded=0;orthogonalLoop=1;jettySize=auto;html=1;exitX=0.5;exitY=0;exitDx=0;exitDy=0;entryX=0.5;entryY=1;entryDx=0;entryDy=0;" edge="1" parent="WIyWlLk6GJQsqaUBKTNV-1" source="FQEPiAxGQchh3mnsltmR-28" target="FQEPiAxGQchh3mnsltmR-30">
          <mxGeometry relative="1" as="geometry" />
        </mxCell>
        <mxCell id="FQEPiAxGQchh3mnsltmR-28" value="コンベア停止" style="rounded=0;whiteSpace=wrap;html=1;" vertex="1" parent="WIyWlLk6GJQsqaUBKTNV-1">
          <mxGeometry x="120" y="220" width="120" height="60" as="geometry" />
        </mxCell>
        <mxCell id="FQEPiAxGQchh3mnsltmR-95" style="edgeStyle=orthogonalEdgeStyle;rounded=0;orthogonalLoop=1;jettySize=auto;html=1;exitX=1;exitY=0.5;exitDx=0;exitDy=0;entryX=1;entryY=0.5;entryDx=0;entryDy=0;" edge="1" parent="WIyWlLk6GJQsqaUBKTNV-1" source="FQEPiAxGQchh3mnsltmR-29" target="FQEPiAxGQchh3mnsltmR-27">
          <mxGeometry relative="1" as="geometry">
            <Array as="points">
              <mxPoint x="630" y="830" />
              <mxPoint x="630" y="-120" />
            </Array>
          </mxGeometry>
        </mxCell>
        <mxCell id="FQEPiAxGQchh3mnsltmR-29" value="コンベア停止" style="rounded=0;whiteSpace=wrap;html=1;" vertex="1" parent="WIyWlLk6GJQsqaUBKTNV-1">
          <mxGeometry x="340" y="800" width="120" height="60" as="geometry" />
        </mxCell>
        <mxCell id="FQEPiAxGQchh3mnsltmR-93" style="edgeStyle=orthogonalEdgeStyle;rounded=0;orthogonalLoop=1;jettySize=auto;html=1;exitX=0.5;exitY=0;exitDx=0;exitDy=0;entryX=0;entryY=0.5;entryDx=0;entryDy=0;" edge="1" parent="WIyWlLk6GJQsqaUBKTNV-1" source="FQEPiAxGQchh3mnsltmR-30" target="FQEPiAxGQchh3mnsltmR-19">
          <mxGeometry relative="1" as="geometry" />
        </mxCell>
        <mxCell id="FQEPiAxGQchh3mnsltmR-30" value="180°回転" style="rounded=0;whiteSpace=wrap;html=1;" vertex="1" parent="WIyWlLk6GJQsqaUBKTNV-1">
          <mxGeometry x="120" y="110" width="120" height="60" as="geometry" />
        </mxCell>
        <mxCell id="FQEPiAxGQchh3mnsltmR-39" style="edgeStyle=orthogonalEdgeStyle;rounded=0;orthogonalLoop=1;jettySize=auto;html=1;exitX=0.5;exitY=1;exitDx=0;exitDy=0;entryX=0.5;entryY=0;entryDx=0;entryDy=0;" edge="1" parent="WIyWlLk6GJQsqaUBKTNV-1" source="FQEPiAxGQchh3mnsltmR-33" target="FQEPiAxGQchh3mnsltmR-34">
          <mxGeometry relative="1" as="geometry" />
        </mxCell>
        <mxCell id="FQEPiAxGQchh3mnsltmR-33" value="&lt;font style=&quot;font-size: 10px&quot;&gt;アプリの球種選択を&lt;br&gt;受け取る&lt;br&gt;&lt;/font&gt;" style="shape=parallelogram;perimeter=parallelogramPerimeter;whiteSpace=wrap;html=1;fixedSize=1;" vertex="1" parent="WIyWlLk6GJQsqaUBKTNV-1">
          <mxGeometry x="340" y="-450" width="120" height="60" as="geometry" />
        </mxCell>
        <mxCell id="FQEPiAxGQchh3mnsltmR-40" style="edgeStyle=orthogonalEdgeStyle;rounded=0;orthogonalLoop=1;jettySize=auto;html=1;exitX=0.5;exitY=1;exitDx=0;exitDy=0;entryX=0.5;entryY=0;entryDx=0;entryDy=0;" edge="1" parent="WIyWlLk6GJQsqaUBKTNV-1" source="FQEPiAxGQchh3mnsltmR-34" target="FQEPiAxGQchh3mnsltmR-19">
          <mxGeometry relative="1" as="geometry" />
        </mxCell>
        <mxCell id="FQEPiAxGQchh3mnsltmR-99" style="edgeStyle=orthogonalEdgeStyle;rounded=0;orthogonalLoop=1;jettySize=auto;html=1;entryX=0.5;entryY=0;entryDx=0;entryDy=0;" edge="1" parent="WIyWlLk6GJQsqaUBKTNV-1" source="FQEPiAxGQchh3mnsltmR-34" target="FQEPiAxGQchh3mnsltmR-35">
          <mxGeometry relative="1" as="geometry">
            <Array as="points">
              <mxPoint x="400" y="-280" />
              <mxPoint x="720" y="-280" />
            </Array>
          </mxGeometry>
        </mxCell>
        <mxCell id="FQEPiAxGQchh3mnsltmR-34" value="&lt;font style=&quot;font-size: 10px&quot;&gt;アプリからの&lt;br&gt;動作命令を&lt;br&gt;&lt;/font&gt;受け取る" style="shape=parallelogram;perimeter=parallelogramPerimeter;whiteSpace=wrap;html=1;fixedSize=1;" vertex="1" parent="WIyWlLk6GJQsqaUBKTNV-1">
          <mxGeometry x="340" y="-350" width="120" height="60" as="geometry" />
        </mxCell>
        <mxCell id="FQEPiAxGQchh3mnsltmR-106" style="edgeStyle=orthogonalEdgeStyle;rounded=0;orthogonalLoop=1;jettySize=auto;html=1;exitX=0.5;exitY=1;exitDx=0;exitDy=0;entryX=0.5;entryY=0;entryDx=0;entryDy=0;" edge="1" parent="WIyWlLk6GJQsqaUBKTNV-1" source="FQEPiAxGQchh3mnsltmR-35" target="FQEPiAxGQchh3mnsltmR-104">
          <mxGeometry relative="1" as="geometry" />
        </mxCell>
        <mxCell id="FQEPiAxGQchh3mnsltmR-35" value="&lt;font style=&quot;font-size: 10px&quot;&gt;アプリからの&lt;br&gt;停止命令を&lt;br&gt;&lt;/font&gt;受け取る" style="shape=parallelogram;perimeter=parallelogramPerimeter;whiteSpace=wrap;html=1;fixedSize=1;" vertex="1" parent="WIyWlLk6GJQsqaUBKTNV-1">
          <mxGeometry x="660" y="-250" width="120" height="60" as="geometry" />
        </mxCell>
        <mxCell id="FQEPiAxGQchh3mnsltmR-38" style="edgeStyle=orthogonalEdgeStyle;rounded=0;orthogonalLoop=1;jettySize=auto;html=1;exitX=0.5;exitY=1;exitDx=0;exitDy=0;entryX=0.5;entryY=0;entryDx=0;entryDy=0;" edge="1" parent="WIyWlLk6GJQsqaUBKTNV-1" source="FQEPiAxGQchh3mnsltmR-36" target="FQEPiAxGQchh3mnsltmR-33">
          <mxGeometry relative="1" as="geometry" />
        </mxCell>
        <mxCell id="FQEPiAxGQchh3mnsltmR-36" value="開始" style="rounded=1;whiteSpace=wrap;html=1;fontSize=12;glass=0;strokeWidth=1;shadow=0;" vertex="1" parent="WIyWlLk6GJQsqaUBKTNV-1">
          <mxGeometry x="340" y="-530" width="120" height="40" as="geometry" />
        </mxCell>
        <mxCell id="FQEPiAxGQchh3mnsltmR-103" style="edgeStyle=orthogonalEdgeStyle;rounded=0;orthogonalLoop=1;jettySize=auto;html=1;exitX=0.5;exitY=1;exitDx=0;exitDy=0;entryX=0.5;entryY=0;entryDx=0;entryDy=0;" edge="1" parent="WIyWlLk6GJQsqaUBKTNV-1" source="FQEPiAxGQchh3mnsltmR-104" target="FQEPiAxGQchh3mnsltmR-105">
          <mxGeometry relative="1" as="geometry" />
        </mxCell>
        <mxCell id="FQEPiAxGQchh3mnsltmR-104" value="停止" style="rounded=0;whiteSpace=wrap;html=1;" vertex="1" parent="WIyWlLk6GJQsqaUBKTNV-1">
          <mxGeometry x="660" y="-150" width="120" height="60" as="geometry" />
        </mxCell>
        <mxCell id="FQEPiAxGQchh3mnsltmR-108" style="edgeStyle=orthogonalEdgeStyle;rounded=0;orthogonalLoop=1;jettySize=auto;html=1;exitX=0.5;exitY=1;exitDx=0;exitDy=0;entryX=0.5;entryY=0;entryDx=0;entryDy=0;" edge="1" parent="WIyWlLk6GJQsqaUBKTNV-1" source="FQEPiAxGQchh3mnsltmR-105" target="FQEPiAxGQchh3mnsltmR-107">
          <mxGeometry relative="1" as="geometry" />
        </mxCell>
        <mxCell id="FQEPiAxGQchh3mnsltmR-105" value="コンベア停止" style="rounded=0;whiteSpace=wrap;html=1;" vertex="1" parent="WIyWlLk6GJQsqaUBKTNV-1">
          <mxGeometry x="660" y="-50" width="120" height="60" as="geometry" />
        </mxCell>
        <mxCell id="FQEPiAxGQchh3mnsltmR-107" value="終了" style="rounded=1;whiteSpace=wrap;html=1;fontSize=12;glass=0;strokeWidth=1;shadow=0;" vertex="1" parent="WIyWlLk6GJQsqaUBKTNV-1">
          <mxGeometry x="660" y="50" width="120" height="40" as="geometry" />
        </mxCell>
      </root>
    </mxGraphModel>
  </diagram>
</mxfile>
